<?xml version="1.0" standalone="no"?>
<!DOCTYPE svg PUBLIC "-//W3C//DTD SVG 20010904//EN"
 "http://www.w3.org/TR/2001/REC-SVG-20010904/DTD/svg10.dtd">
<svg version="1.0" xmlns="http://www.w3.org/2000/svg"
 width="512.000000pt" height="512.000000pt" viewBox="0 0 512.000000 512.000000"
 preserveAspectRatio="xMidYMid meet">

<g transform="translate(0.000000,512.000000) scale(0.100000,-0.100000)"
fill="#000000" stroke="none">
<path d="M2405 4494 c-329 -52 -592 -236 -740 -517 -101 -192 -135 -399 -100
-614 62 -381 344 -690 720 -789 86 -23 120 -27 245 -27 125 0 159 4 245 27
540 142 855 710 688 1240 -84 267 -268 475 -527 597 -119 55 -227 79 -376 84
-69 2 -138 1 -155 -1z m330 -328 c105 -33 193 -87 271 -164 325 -322 243 -869
-163 -1080 -105 -54 -192 -75 -318 -75 -122 0 -202 20 -310 76 -194 101 -325
288 -356 510 -29 208 42 416 192 566 99 99 226 166 363 191 85 15 231 4 321
-24z"/>
<path d="M2369 2399 c-700 -50 -1261 -365 -1418 -796 -44 -118 -51 -201 -51
-573 l0 -340 27 -17 c38 -25 185 -31 236 -9 l37 15 0 328 c0 180 5 360 10 398
59 420 739 737 1489 694 642 -37 1160 -334 1211 -694 5 -38 10 -218 10 -398
l0 -328 37 -15 c51 -22 198 -16 236 9 l27 17 0 340 c0 188 -5 373 -11 416 -24
175 -109 335 -253 479 -275 273 -695 437 -1221 475 -154 11 -209 11 -366 -1z"/>
</g>
</svg>
